<svg width="1318" height="693" viewBox="0 0 1318 693" fill="none" xmlns="http://www.w3.org/2000/svg">
<path d="M90 207.55C90 232.403 69.8528 252.55 45 252.55C20.1472 252.55 0 232.403 0 207.55C0 182.697 20.1472 162.55 45 162.55C69.8528 162.55 90 182.697 90 207.55Z" fill="white"/>
<path d="M270 207.55C270 232.403 249.853 252.55 225 252.55C200.147 252.55 180 232.403 180 207.55C180 182.697 200.147 162.55 225 162.55C249.853 162.55 270 182.697 270 207.55Z" fill="white"/>
<path d="M45 162.55H225V252.55H45V162.55Z" fill="white"/>
<path d="M90 162.55H180V407.55H90V162.55Z" fill="white"/>
<path d="M135 452.55V362.55H380V452.55H135Z" fill="white"/>
<path d="M180 407.55C180 432.403 159.853 452.55 135 452.55C110.147 452.55 90 432.403 90 407.55C90 382.697 110.147 362.55 135 362.55C159.853 362.55 180 382.697 180 407.55Z" fill="white"/>
<path d="M425 407.55C425 432.403 404.853 452.55 380 452.55C355.147 452.55 335 432.403 335 407.55C335 382.697 355.147 362.55 380 362.55C404.853 362.55 425 382.697 425 407.55Z" fill="white"/>
<path d="M414.241 230.461C401.815 251.984 374.293 259.358 352.77 246.932C331.247 234.505 323.873 206.984 336.299 185.461C348.725 163.937 376.247 156.563 397.77 168.989C419.293 181.416 426.668 208.937 414.241 230.461Z" fill="white"/>
<path d="M336.23 185.522L414.172 230.522L291.672 442.699L213.73 397.699L336.23 185.522Z" fill="white"/>
<path d="M413.538 184.151C425.451 204.785 417.66 231.586 396.137 244.013C374.614 256.439 347.509 249.785 335.596 229.151C323.682 208.517 331.473 181.716 352.996 169.29C374.519 156.864 401.625 163.517 413.538 184.151Z" fill="white"/>
<path d="M335.613 229.239L413.555 184.239L530.995 387.65L453.053 432.65L335.613 229.239Z" fill="white"/>
<path d="M530.357 386.411C542.27 407.045 534.48 433.846 512.957 446.273C491.434 458.699 464.328 452.045 452.415 431.411C440.502 410.777 448.292 383.976 469.816 371.55C491.339 359.124 518.444 365.777 530.357 386.411Z" fill="white"/>
<path d="M489 400.55H639V452.55H489V400.55Z" fill="white"/>
<path fill-rule="evenodd" clip-rule="evenodd" d="M639 162.55C719.081 162.55 784 227.469 784 307.55C784 387.631 719.081 452.55 639 452.55C558.919 452.55 494 387.631 494 307.55C494 227.469 558.919 162.55 639 162.55ZM639 252.55C608.624 252.55 584 277.174 584 307.55C584 337.926 608.624 362.55 639 362.55C669.376 362.55 694 337.926 694 307.55C694 277.174 669.376 252.55 639 252.55Z" fill="white"/>
<path d="M1054 207.55C1054 232.403 1033.85 252.55 1009 252.55C984.147 252.55 964 232.403 964 207.55C964 182.697 984.147 162.55 1009 162.55C1033.85 162.55 1054 182.697 1054 207.55Z" fill="white"/>
<path d="M854 207.55C854 232.403 833.853 252.55 809 252.55C784.147 252.55 764 232.403 764 207.55C764 182.697 784.147 162.55 809 162.55C833.853 162.55 854 182.697 854 207.55Z" fill="white"/>
<path d="M811 162.55H1009V252.55H811V162.55Z" fill="white"/>
<path d="M909 162.55C989.081 162.55 1054 227.469 1054 307.55C1054 387.631 989.081 452.55 909 452.55C848.387 452.55 796.461 415.358 774.796 362.55H909C939.376 362.55 964 337.926 964 307.55C964 277.174 939.376 252.55 909 252.55H809V202.551C835.016 177.766 870.231 162.55 909 162.55Z" fill="white"/>
<path d="M975 206.55H1054V308.55H975V206.55Z" fill="white"/>
<path d="M619 362.55H914V452.55H619V362.55Z" fill="white"/>
<path d="M231.5 362.4C231.5 362.538 231.164 362.65 230.75 362.65C230.336 362.65 230 362.538 230 362.4C230 362.262 230.336 362.15 230.75 362.15C231.164 362.15 231.5 362.262 231.5 362.4Z" fill="white"/>
<path d="M230 363.05L236.062 359.55L237.748 362.47L231.686 365.97L230 363.05Z" fill="white"/>
<path d="M229.8 362.55H233.8V365.55H229.8V362.55Z" fill="white"/>
<path d="M844.459 22.55H1136.54V133.467H844.459V22.55Z" fill="url(#paint0_linear_2003_2)"/>
<path d="M1179.68 78.0087C1179.68 108.638 1154.85 133.467 1124.22 133.467C1093.59 133.467 1068.76 108.638 1068.76 78.0087C1068.76 47.3797 1093.59 22.55 1124.22 22.55C1154.85 22.55 1179.68 47.3797 1179.68 78.0087Z" fill="url(#paint1_linear_2003_2)"/>
<path d="M899.917 78.0087C899.917 108.638 875.088 133.467 844.459 133.467C813.83 133.467 789 108.638 789 78.0087C789 47.3797 813.83 22.55 844.459 22.55C875.088 22.55 899.917 47.3797 899.917 78.0087Z" fill="url(#paint2_linear_2003_2)"/>
<path d="M1081.48 370.292V77.8077H1192V370.292H1081.48Z" fill="url(#paint3_linear_2003_2)"/>
<path d="M1136.74 22.55C1167.26 22.55 1192 47.2897 1192 77.8077C1192 108.326 1167.26 133.065 1136.74 133.065C1106.22 133.065 1081.48 108.326 1081.48 77.8077C1081.48 47.2897 1106.22 22.55 1136.74 22.55Z" fill="url(#paint4_linear_2003_2)"/>
<path d="M1136.74 315.035C1167.26 315.035 1192 339.774 1192 370.292C1192 400.81 1167.26 425.55 1136.74 425.55C1106.22 425.55 1081.48 400.81 1081.48 370.292C1081.48 339.774 1106.22 315.035 1136.74 315.035Z" fill="url(#paint5_linear_2003_2)"/>
<path d="M413.8 658.55C405 658.55 397.333 656.883 390.8 653.55C384.4 650.217 379.4 645.417 375.8 639.15C372.333 632.75 370.6 625.217 370.6 616.55V550.55C370.6 541.75 372.333 534.217 375.8 527.95C379.4 521.683 384.4 516.883 390.8 513.55C397.333 510.217 405 508.55 413.8 508.55C422.6 508.55 430.2 510.283 436.6 513.75C443 517.083 447.933 521.883 451.4 528.15C454.867 534.417 456.6 541.883 456.6 550.55H438.6C438.6 542.283 436.4 535.95 432 531.55C427.733 527.017 421.667 524.75 413.8 524.75C405.933 524.75 399.733 526.95 395.2 531.35C390.8 535.75 388.6 542.083 388.6 550.35V616.55C388.6 624.817 390.8 631.217 395.2 635.75C399.733 640.15 405.933 642.35 413.8 642.35C421.667 642.35 427.733 640.15 432 635.75C436.4 631.217 438.6 624.817 438.6 616.55H456.6C456.6 625.083 454.867 632.55 451.4 638.95C447.933 645.217 443 650.083 436.6 653.55C430.2 656.883 422.6 658.55 413.8 658.55Z" fill="url(#paint6_linear_2003_2)"/>
<path d="M523.322 658.55C511.722 658.55 502.589 655.617 495.922 649.75C489.255 643.75 485.922 635.683 485.922 625.55C485.922 615.283 489.255 607.217 495.922 601.35C502.589 595.483 511.589 592.55 522.922 592.55H556.922V581.55C556.922 574.75 554.855 569.55 550.722 565.95C546.722 562.217 540.989 560.35 533.522 560.35C526.989 560.35 521.522 561.75 517.122 564.55C512.722 567.217 510.189 570.883 509.522 575.55H491.522C492.722 566.083 497.189 558.55 504.922 552.95C512.655 547.35 522.322 544.55 533.922 544.55C546.589 544.55 556.589 547.817 563.922 554.35C571.255 560.883 574.922 569.75 574.922 580.95V656.55H557.322V635.55H554.322L557.322 632.55C557.322 640.55 554.189 646.883 547.922 651.55C541.789 656.217 533.589 658.55 523.322 658.55ZM527.722 644.35C536.255 644.35 543.255 642.217 548.722 637.95C554.189 633.683 556.922 628.217 556.922 621.55V605.95H523.322C517.322 605.95 512.589 607.617 509.122 610.95C505.655 614.283 503.922 618.817 503.922 624.55C503.922 630.683 505.989 635.55 510.122 639.15C514.389 642.617 520.255 644.35 527.722 644.35Z" fill="url(#paint7_linear_2003_2)"/>
<path d="M611.244 692.55V546.55H629.244V567.55H632.844L629.244 571.75C629.244 563.35 631.977 556.75 637.444 551.95C643.044 547.017 650.377 544.55 659.444 544.55C670.51 544.55 679.31 548.217 685.844 555.55C692.51 562.75 695.844 572.683 695.844 585.35V617.55C695.844 625.95 694.31 633.217 691.244 639.35C688.31 645.483 684.11 650.217 678.644 653.55C673.31 656.883 666.91 658.55 659.444 658.55C650.51 658.55 643.244 656.083 637.644 651.15C632.044 646.217 629.244 639.617 629.244 631.35L632.844 635.55H628.844L629.244 660.55V692.55H611.244ZM653.444 642.95C661.044 642.95 666.977 640.683 671.244 636.15C675.644 631.617 677.844 625.083 677.844 616.55V586.55C677.844 578.017 675.644 571.483 671.244 566.95C666.977 562.417 661.044 560.15 653.444 560.15C646.11 560.15 640.244 562.483 635.844 567.15C631.444 571.817 629.244 578.283 629.244 586.55V616.55C629.244 624.817 631.444 631.283 635.844 635.95C640.244 640.617 646.11 642.95 653.444 642.95Z" fill="url(#paint8_linear_2003_2)"/>
<path d="M784.766 656.55C775.299 656.55 767.899 654.017 762.566 648.95C757.366 643.883 754.766 636.75 754.766 627.55V562.95H723.766V546.55H754.766V515.55H772.766V546.55H816.766V562.95H772.766V627.55C772.766 635.95 776.766 640.15 784.766 640.15H814.766V656.55H784.766Z" fill="url(#paint9_linear_2003_2)"/>
<path d="M892.487 658.55C879.821 658.55 869.688 654.817 862.088 647.35C854.488 639.75 850.688 629.483 850.688 616.55V546.55H868.688V616.55C868.688 624.817 870.821 631.283 875.088 635.95C879.354 640.483 885.154 642.75 892.487 642.75C899.954 642.75 905.821 640.483 910.088 635.95C914.488 631.283 916.688 624.817 916.688 616.55V546.55H934.688V616.55C934.688 629.483 930.821 639.75 923.088 647.35C915.354 654.817 905.154 658.55 892.487 658.55Z" fill="url(#paint10_linear_2003_2)"/>
<path d="M974.809 656.55V546.55H992.409V567.55H996.609L990.809 580.55C990.809 568.683 993.343 559.75 998.409 553.75C1003.61 547.617 1011.28 544.55 1021.41 544.55C1033.01 544.55 1042.21 548.217 1049.01 555.55C1055.94 562.75 1059.41 572.55 1059.41 584.95V591.55H1041.41V586.55C1041.41 577.883 1039.28 571.283 1035.01 566.75C1030.88 562.083 1024.94 559.75 1017.21 559.75C1009.61 559.75 1003.61 562.083 999.209 566.75C994.943 571.417 992.809 578.017 992.809 586.55V656.55H974.809Z" fill="url(#paint11_linear_2003_2)"/>
<path d="M1132.53 658.55C1123.86 658.55 1116.26 656.817 1109.73 653.35C1103.33 649.883 1098.33 645.017 1094.73 638.75C1091.26 632.35 1089.53 624.95 1089.53 616.55V586.55C1089.53 578.017 1091.26 570.617 1094.73 564.35C1098.33 558.083 1103.33 553.217 1109.73 549.75C1116.26 546.283 1123.86 544.55 1132.53 544.55C1141.2 544.55 1148.73 546.283 1155.13 549.75C1161.66 553.217 1166.66 558.083 1170.13 564.35C1173.73 570.617 1175.53 578.017 1175.53 586.55V605.95H1107.13V616.55C1107.13 625.217 1109.33 631.883 1113.73 636.55C1118.13 641.083 1124.4 643.35 1132.53 643.35C1139.46 643.35 1145.06 642.15 1149.33 639.75C1153.6 637.217 1156.2 633.483 1157.13 628.55H1175.13C1173.93 637.75 1169.4 645.083 1161.53 650.55C1153.8 655.883 1144.13 658.55 1132.53 658.55ZM1157.93 593.95V586.55C1157.93 577.883 1155.73 571.217 1151.33 566.55C1147.06 561.883 1140.8 559.55 1132.53 559.55C1124.4 559.55 1118.13 561.883 1113.73 566.55C1109.33 571.217 1107.13 577.883 1107.13 586.55V592.35H1159.33L1157.93 593.95Z" fill="url(#paint12_linear_2003_2)"/>
<path d="M1242.75 36.55V4.1H1232.75V0H1257.25V4.1H1247.25V36.55H1242.75Z" fill="white"/>
<path d="M1263.78 36.55V0.0499994H1269.68L1273.48 11.85C1273.85 12.9167 1274.18 13.9833 1274.48 15.05C1274.78 16.0833 1275 16.8833 1275.13 17.45C1275.3 16.8833 1275.51 16.0833 1275.78 15.05C1276.05 13.9833 1276.35 12.9 1276.68 11.8L1280.28 0.0499994H1286.18V36.55H1281.78V23.3C1281.78 21.8333 1281.83 20.1667 1281.93 18.3C1282.03 16.4333 1282.16 14.5333 1282.33 12.6C1282.5 10.6333 1282.66 8.76666 1282.83 7C1283.03 5.2 1283.2 3.63333 1283.33 2.3L1277.43 20.55H1272.68L1266.73 2.3C1266.9 3.6 1267.06 5.11667 1267.23 6.85C1267.4 8.55 1267.55 10.3667 1267.68 12.3C1267.81 14.2 1267.93 16.1 1268.03 18C1268.13 19.9 1268.18 21.6667 1268.18 23.3V36.55H1263.78Z" fill="white"/>
<path d="M1230 51.55H1318V62.55H1230V51.55Z" fill="white"/>
<defs>
<linearGradient id="paint0_linear_2003_2" x1="1318" y1="-7.71825e-05" x2="1015.35" y2="208.807" gradientUnits="userSpaceOnUse">
<stop stop-color="#FF9494"/>
<stop offset="1" stop-color="#7300FF"/>
</linearGradient>
<linearGradient id="paint1_linear_2003_2" x1="1318" y1="-7.71825e-05" x2="1015.35" y2="208.807" gradientUnits="userSpaceOnUse">
<stop stop-color="#FF9494"/>
<stop offset="1" stop-color="#7300FF"/>
</linearGradient>
<linearGradient id="paint2_linear_2003_2" x1="1318" y1="-7.71825e-05" x2="1015.35" y2="208.807" gradientUnits="userSpaceOnUse">
<stop stop-color="#FF9494"/>
<stop offset="1" stop-color="#7300FF"/>
</linearGradient>
<linearGradient id="paint3_linear_2003_2" x1="1318" y1="-7.71825e-05" x2="1015.35" y2="208.807" gradientUnits="userSpaceOnUse">
<stop stop-color="#FF9494"/>
<stop offset="1" stop-color="#7300FF"/>
</linearGradient>
<linearGradient id="paint4_linear_2003_2" x1="1318" y1="-7.71825e-05" x2="1015.35" y2="208.807" gradientUnits="userSpaceOnUse">
<stop stop-color="#FF9494"/>
<stop offset="1" stop-color="#7300FF"/>
</linearGradient>
<linearGradient id="paint5_linear_2003_2" x1="1318" y1="-7.71825e-05" x2="1015.35" y2="208.807" gradientUnits="userSpaceOnUse">
<stop stop-color="#FF9494"/>
<stop offset="1" stop-color="#7300FF"/>
</linearGradient>
<linearGradient id="paint6_linear_2003_2" x1="0" y1="346.275" x2="1318" y2="346.275" gradientUnits="userSpaceOnUse">
<stop stop-color="#513DFF"/>
<stop offset="0.225962" stop-color="#C982FF"/>
</linearGradient>
<linearGradient id="paint7_linear_2003_2" x1="0" y1="346.275" x2="1318" y2="346.275" gradientUnits="userSpaceOnUse">
<stop stop-color="#513DFF"/>
<stop offset="0.225962" stop-color="#C982FF"/>
</linearGradient>
<linearGradient id="paint8_linear_2003_2" x1="0" y1="346.275" x2="1318" y2="346.275" gradientUnits="userSpaceOnUse">
<stop stop-color="#513DFF"/>
<stop offset="0.225962" stop-color="#C982FF"/>
</linearGradient>
<linearGradient id="paint9_linear_2003_2" x1="0" y1="346.275" x2="1318" y2="346.275" gradientUnits="userSpaceOnUse">
<stop stop-color="#513DFF"/>
<stop offset="0.225962" stop-color="#C982FF"/>
</linearGradient>
<linearGradient id="paint10_linear_2003_2" x1="0" y1="346.275" x2="1318" y2="346.275" gradientUnits="userSpaceOnUse">
<stop stop-color="#513DFF"/>
<stop offset="0.225962" stop-color="#C982FF"/>
</linearGradient>
<linearGradient id="paint11_linear_2003_2" x1="0" y1="346.275" x2="1318" y2="346.275" gradientUnits="userSpaceOnUse">
<stop stop-color="#513DFF"/>
<stop offset="0.225962" stop-color="#C982FF"/>
</linearGradient>
<linearGradient id="paint12_linear_2003_2" x1="0" y1="346.275" x2="1318" y2="346.275" gradientUnits="userSpaceOnUse">
<stop stop-color="#513DFF"/>
<stop offset="0.225962" stop-color="#C982FF"/>
</linearGradient>
</defs>
</svg>
