<svg width="1318" height="453" viewBox="0 0 1318 453" fill="none" xmlns="http://www.w3.org/2000/svg">
<path d="M90 207.55C90 232.403 69.8528 252.55 45 252.55C20.1472 252.55 0 232.403 0 207.55C0 182.697 20.1472 162.55 45 162.55C69.8528 162.55 90 182.697 90 207.55Z" fill="white"/>
<path d="M270 207.55C270 232.403 249.853 252.55 225 252.55C200.147 252.55 180 232.403 180 207.55C180 182.697 200.147 162.55 225 162.55C249.853 162.55 270 182.697 270 207.55Z" fill="white"/>
<path d="M45 162.55H225V252.55H45V162.55Z" fill="white"/>
<path d="M90 162.55H180V407.55H90V162.55Z" fill="white"/>
<path d="M135 452.55V362.55H380V452.55H135Z" fill="white"/>
<path d="M180 407.55C180 432.403 159.853 452.55 135 452.55C110.147 452.55 90 432.403 90 407.55C90 382.697 110.147 362.55 135 362.55C159.853 362.55 180 382.697 180 407.55Z" fill="white"/>
<path d="M425 407.55C425 432.403 404.853 452.55 380 452.55C355.147 452.55 335 432.403 335 407.55C335 382.697 355.147 362.55 380 362.55C404.853 362.55 425 382.697 425 407.55Z" fill="white"/>
<path d="M414.241 230.461C401.815 251.984 374.293 259.358 352.77 246.932C331.247 234.505 323.873 206.984 336.299 185.461C348.725 163.937 376.247 156.563 397.77 168.989C419.293 181.416 426.668 208.937 414.241 230.461Z" fill="white"/>
<path d="M336.23 185.522L414.172 230.522L291.672 442.699L213.73 397.699L336.23 185.522Z" fill="white"/>
<path d="M413.538 184.151C425.451 204.785 417.66 231.586 396.137 244.013C374.614 256.439 347.509 249.785 335.596 229.151C323.682 208.517 331.473 181.716 352.996 169.29C374.519 156.864 401.625 163.517 413.538 184.151Z" fill="white"/>
<path d="M335.613 229.239L413.555 184.239L530.995 387.65L453.053 432.65L335.613 229.239Z" fill="white"/>
<path d="M530.357 386.411C542.27 407.045 534.48 433.846 512.957 446.273C491.434 458.699 464.328 452.045 452.415 431.411C440.502 410.777 448.292 383.976 469.816 371.55C491.339 359.124 518.444 365.777 530.357 386.411Z" fill="white"/>
<path d="M489 400.55H639V452.55H489V400.55Z" fill="white"/>
<path fill-rule="evenodd" clip-rule="evenodd" d="M639 162.55C719.081 162.55 784 227.469 784 307.55C784 387.631 719.081 452.55 639 452.55C558.919 452.55 494 387.631 494 307.55C494 227.469 558.919 162.55 639 162.55ZM639 252.55C608.624 252.55 584 277.174 584 307.55C584 337.926 608.624 362.55 639 362.55C669.376 362.55 694 337.926 694 307.55C694 277.174 669.376 252.55 639 252.55Z" fill="white"/>
<path d="M1054 207.55C1054 232.403 1033.85 252.55 1009 252.55C984.147 252.55 964 232.403 964 207.55C964 182.697 984.147 162.55 1009 162.55C1033.85 162.55 1054 182.697 1054 207.55Z" fill="white"/>
<path d="M854 207.55C854 232.403 833.853 252.55 809 252.55C784.147 252.55 764 232.403 764 207.55C764 182.697 784.147 162.55 809 162.55C833.853 162.55 854 182.697 854 207.55Z" fill="white"/>
<path d="M811 162.55H1009V252.55H811V162.55Z" fill="white"/>
<path d="M909 162.55C989.081 162.55 1054 227.469 1054 307.55C1054 387.631 989.081 452.55 909 452.55C848.387 452.55 796.461 415.358 774.796 362.55H909C939.376 362.55 964 337.926 964 307.55C964 277.174 939.376 252.55 909 252.55H809V202.551C835.016 177.766 870.231 162.55 909 162.55Z" fill="white"/>
<path d="M975 206.55H1054V308.55H975V206.55Z" fill="white"/>
<path d="M619 362.55H914V452.55H619V362.55Z" fill="white"/>
<path d="M231.5 362.4C231.5 362.538 231.164 362.65 230.75 362.65C230.336 362.65 230 362.538 230 362.4C230 362.262 230.336 362.15 230.75 362.15C231.164 362.15 231.5 362.262 231.5 362.4Z" fill="white"/>
<path d="M230 363.05L236.062 359.55L237.748 362.47L231.686 365.97L230 363.05Z" fill="white"/>
<path d="M229.8 362.55H233.8V365.55H229.8V362.55Z" fill="white"/>
<path d="M844.459 22.55H1136.54V133.467H844.459V22.55Z" fill="url(#paint0_linear_4003_2)"/>
<path d="M1179.68 78.0087C1179.68 108.638 1154.85 133.467 1124.22 133.467C1093.59 133.467 1068.76 108.638 1068.76 78.0087C1068.76 47.3797 1093.59 22.55 1124.22 22.55C1154.85 22.55 1179.68 47.3797 1179.68 78.0087Z" fill="url(#paint1_linear_4003_2)"/>
<path d="M899.917 78.0087C899.917 108.638 875.088 133.467 844.459 133.467C813.83 133.467 789 108.638 789 78.0087C789 47.3797 813.83 22.55 844.459 22.55C875.088 22.55 899.917 47.3797 899.917 78.0087Z" fill="url(#paint2_linear_4003_2)"/>
<path d="M1081.48 370.292V77.8077H1192V370.292H1081.48Z" fill="url(#paint3_linear_4003_2)"/>
<path d="M1136.74 22.55C1167.26 22.55 1192 47.2897 1192 77.8077C1192 108.326 1167.26 133.065 1136.74 133.065C1106.22 133.065 1081.48 108.326 1081.48 77.8077C1081.48 47.2897 1106.22 22.55 1136.74 22.55Z" fill="url(#paint4_linear_4003_2)"/>
<path d="M1136.74 315.035C1167.26 315.035 1192 339.774 1192 370.292C1192 400.81 1167.26 425.55 1136.74 425.55C1106.22 425.55 1081.48 400.81 1081.48 370.292C1081.48 339.774 1106.22 315.035 1136.74 315.035Z" fill="url(#paint5_linear_4003_2)"/>
<path d="M1242.75 36.55V4.1H1232.75V0H1257.25V4.1H1247.25V36.55H1242.75Z" fill="white"/>
<path d="M1263.78 36.55V0.0499994H1269.68L1273.48 11.85C1273.85 12.9167 1274.18 13.9833 1274.48 15.05C1274.78 16.0833 1275 16.8833 1275.13 17.45C1275.3 16.8833 1275.51 16.0833 1275.78 15.05C1276.05 13.9833 1276.35 12.9 1276.68 11.8L1280.28 0.0499994H1286.18V36.55H1281.78V23.3C1281.78 21.8333 1281.83 20.1667 1281.93 18.3C1282.03 16.4333 1282.16 14.5333 1282.33 12.6C1282.5 10.6333 1282.66 8.76666 1282.83 7C1283.03 5.2 1283.2 3.63333 1283.33 2.3L1277.43 20.55H1272.68L1266.73 2.3C1266.9 3.6 1267.06 5.11667 1267.23 6.85C1267.4 8.55 1267.55 10.3667 1267.68 12.3C1267.81 14.2 1267.93 16.1 1268.03 18C1268.13 19.9 1268.18 21.6667 1268.18 23.3V36.55H1263.78Z" fill="white"/>
<path d="M1230 51.55H1318V62.55H1230V51.55Z" fill="white"/>
<defs>
<linearGradient id="paint0_linear_4003_2" x1="1318" y1="-5.04353e-05" x2="1106.77" y2="223.026" gradientUnits="userSpaceOnUse">
<stop stop-color="#FF9494"/>
<stop offset="1" stop-color="#7300FF"/>
</linearGradient>
<linearGradient id="paint1_linear_4003_2" x1="1318" y1="-5.04353e-05" x2="1106.77" y2="223.026" gradientUnits="userSpaceOnUse">
<stop stop-color="#FF9494"/>
<stop offset="1" stop-color="#7300FF"/>
</linearGradient>
<linearGradient id="paint2_linear_4003_2" x1="1318" y1="-5.04353e-05" x2="1106.77" y2="223.026" gradientUnits="userSpaceOnUse">
<stop stop-color="#FF9494"/>
<stop offset="1" stop-color="#7300FF"/>
</linearGradient>
<linearGradient id="paint3_linear_4003_2" x1="1318" y1="-5.04353e-05" x2="1106.77" y2="223.026" gradientUnits="userSpaceOnUse">
<stop stop-color="#FF9494"/>
<stop offset="1" stop-color="#7300FF"/>
</linearGradient>
<linearGradient id="paint4_linear_4003_2" x1="1318" y1="-5.04353e-05" x2="1106.77" y2="223.026" gradientUnits="userSpaceOnUse">
<stop stop-color="#FF9494"/>
<stop offset="1" stop-color="#7300FF"/>
</linearGradient>
<linearGradient id="paint5_linear_4003_2" x1="1318" y1="-5.04353e-05" x2="1106.77" y2="223.026" gradientUnits="userSpaceOnUse">
<stop stop-color="#FF9494"/>
<stop offset="1" stop-color="#7300FF"/>
</linearGradient>
</defs>
</svg>
