<svg width="1192" height="430" viewBox="0 0 1192 430" fill="none" xmlns="http://www.w3.org/2000/svg">
<path d="M90 185C90 209.853 69.8528 230 45 230C20.1472 230 0 209.853 0 185C0 160.147 20.1472 140 45 140C69.8528 140 90 160.147 90 185Z" fill="white"/>
<path d="M270 185C270 209.853 249.853 230 225 230C200.147 230 180 209.853 180 185C180 160.147 200.147 140 225 140C249.853 140 270 160.147 270 185Z" fill="white"/>
<path d="M45 140H225V230H45V140Z" fill="white"/>
<path d="M90 140H180V385H90V140Z" fill="white"/>
<path d="M135 430V340H380V430H135Z" fill="white"/>
<path d="M180 385C180 409.853 159.853 430 135 430C110.147 430 90 409.853 90 385C90 360.147 110.147 340 135 340C159.853 340 180 360.147 180 385Z" fill="white"/>
<path d="M425 385C425 409.853 404.853 430 380 430C355.147 430 335 409.853 335 385C335 360.147 355.147 340 380 340C404.853 340 425 360.147 425 385Z" fill="white"/>
<path d="M414.241 207.911C401.815 229.434 374.293 236.808 352.77 224.382C331.247 211.955 323.873 184.434 336.299 162.911C348.725 141.387 376.247 134.013 397.77 146.439C419.293 158.866 426.668 186.387 414.241 207.911Z" fill="white"/>
<path d="M336.23 162.972L414.172 207.972L291.672 420.149L213.73 375.149L336.23 162.972Z" fill="white"/>
<path d="M413.538 161.601C425.451 182.235 417.66 209.036 396.137 221.463C374.614 233.889 347.509 227.235 335.596 206.601C323.682 185.967 331.473 159.166 352.996 146.74C374.519 134.314 401.625 140.967 413.538 161.601Z" fill="white"/>
<path d="M335.613 206.689L413.555 161.689L530.995 365.1L453.053 410.1L335.613 206.689Z" fill="white"/>
<path d="M530.357 363.861C542.27 384.495 534.48 411.296 512.957 423.723C491.434 436.149 464.328 429.495 452.415 408.861C440.502 388.227 448.292 361.426 469.816 349C491.339 336.574 518.444 343.227 530.357 363.861Z" fill="white"/>
<path d="M489 378H639V430H489V378Z" fill="white"/>
<path fill-rule="evenodd" clip-rule="evenodd" d="M639 140C719.081 140 784 204.919 784 285C784 365.081 719.081 430 639 430C558.919 430 494 365.081 494 285C494 204.919 558.919 140 639 140ZM639 230C608.624 230 584 254.624 584 285C584 315.376 608.624 340 639 340C669.376 340 694 315.376 694 285C694 254.624 669.376 230 639 230Z" fill="white"/>
<path d="M1054 185C1054 209.853 1033.85 230 1009 230C984.147 230 964 209.853 964 185C964 160.147 984.147 140 1009 140C1033.85 140 1054 160.147 1054 185Z" fill="white"/>
<path d="M854 185C854 209.853 833.853 230 809 230C784.147 230 764 209.853 764 185C764 160.147 784.147 140 809 140C833.853 140 854 160.147 854 185Z" fill="white"/>
<path d="M811 140H1009V230H811V140Z" fill="white"/>
<path d="M909 140C989.081 140 1054 204.919 1054 285C1054 365.081 989.081 430 909 430C848.387 430 796.461 392.808 774.796 340H909C939.376 340 964 315.376 964 285C964 254.624 939.376 230 909 230H809V180.001C835.016 155.216 870.231 140 909 140Z" fill="white"/>
<path d="M975 184H1054V286H975V184Z" fill="white"/>
<path d="M619 340H914V430H619V340Z" fill="white"/>
<path d="M231.5 339.85C231.5 339.988 231.164 340.1 230.75 340.1C230.336 340.1 230 339.988 230 339.85C230 339.712 230.336 339.6 230.75 339.6C231.164 339.6 231.5 339.712 231.5 339.85Z" fill="white"/>
<path d="M230 340.5L236.062 337L237.748 339.92L231.686 343.42L230 340.5Z" fill="white"/>
<path d="M229.8 340H233.8V343H229.8V340Z" fill="white"/>
<path d="M844.459 0H1136.54V110.917H844.459V0Z" fill="url(#paint0_linear_9_98)"/>
<path d="M1179.68 55.4587C1179.68 86.0877 1154.85 110.917 1124.22 110.917C1093.59 110.917 1068.76 86.0877 1068.76 55.4587C1068.76 24.8297 1093.59 0 1124.22 0C1154.85 0 1179.68 24.8297 1179.68 55.4587Z" fill="url(#paint1_linear_9_98)"/>
<path d="M899.917 55.4587C899.917 86.0877 875.088 110.917 844.459 110.917C813.83 110.917 789 86.0877 789 55.4587C789 24.8297 813.83 0 844.459 0C875.088 0 899.917 24.8297 899.917 55.4587Z" fill="url(#paint2_linear_9_98)"/>
<path d="M1081.48 347.742V55.2577H1192V347.742H1081.48Z" fill="url(#paint3_linear_9_98)"/>
<path d="M1136.74 0C1167.26 0 1192 24.7397 1192 55.2577C1192 85.7757 1167.26 110.515 1136.74 110.515C1106.22 110.515 1081.48 85.7757 1081.48 55.2577C1081.48 24.7397 1106.22 0 1136.74 0Z" fill="url(#paint4_linear_9_98)"/>
<path d="M1136.74 292.485C1167.26 292.485 1192 317.224 1192 347.742C1192 378.26 1167.26 403 1136.74 403C1106.22 403 1081.48 378.26 1081.48 347.742C1081.48 317.224 1106.22 292.485 1136.74 292.485Z" fill="url(#paint5_linear_9_98)"/>
<defs>
<linearGradient id="paint0_linear_9_98" x1="1192" y1="-4.79221e-05" x2="991" y2="202" gradientUnits="userSpaceOnUse">
<stop stop-color="#FF9494"/>
<stop offset="1" stop-color="#7300FF"/>
</linearGradient>
<linearGradient id="paint1_linear_9_98" x1="1192" y1="-4.79221e-05" x2="991" y2="202" gradientUnits="userSpaceOnUse">
<stop stop-color="#FF9494"/>
<stop offset="1" stop-color="#7300FF"/>
</linearGradient>
<linearGradient id="paint2_linear_9_98" x1="1192" y1="-4.79221e-05" x2="991" y2="202" gradientUnits="userSpaceOnUse">
<stop stop-color="#FF9494"/>
<stop offset="1" stop-color="#7300FF"/>
</linearGradient>
<linearGradient id="paint3_linear_9_98" x1="1192" y1="-4.79221e-05" x2="991" y2="202" gradientUnits="userSpaceOnUse">
<stop stop-color="#FF9494"/>
<stop offset="1" stop-color="#7300FF"/>
</linearGradient>
<linearGradient id="paint4_linear_9_98" x1="1192" y1="-4.79221e-05" x2="991" y2="202" gradientUnits="userSpaceOnUse">
<stop stop-color="#FF9494"/>
<stop offset="1" stop-color="#7300FF"/>
</linearGradient>
<linearGradient id="paint5_linear_9_98" x1="1192" y1="-4.79221e-05" x2="991" y2="202" gradientUnits="userSpaceOnUse">
<stop stop-color="#FF9494"/>
<stop offset="1" stop-color="#7300FF"/>
</linearGradient>
</defs>
</svg>
