<svg width="1054" height="290" viewBox="0 0 1054 290" fill="none" xmlns="http://www.w3.org/2000/svg">
<mask id="path-1-inside-1_6_73" fill="currentColor>
<path d="M90 45C90 69.8528 69.8528 90 45 90C20.1472 90 0 69.8528 0 45C0 20.1472 20.1472 0 45 0C69.8528 0 90 20.1472 90 45Z"/>
<path d="M270 45C270 69.8528 249.853 90 225 90C200.147 90 180 69.8528 180 45C180 20.1472 200.147 0 225 0C249.853 0 270 20.1472 270 45Z"/>
<path d="M45 0H225V90H45V0Z"/>
<path d="M90 0H180V245H90V0Z"/>
<path d="M135 290V200H380V290H135Z"/>
<path d="M180 245C180 269.853 159.853 290 135 290C110.147 290 90 269.853 90 245C90 220.147 110.147 200 135 200C159.853 200 180 220.147 180 245Z"/>
<path d="M425 245C425 269.853 404.853 290 380 290C355.147 290 335 269.853 335 245C335 220.147 355.147 200 380 200C404.853 200 425 220.147 425 245Z"/>
<path d="M414.241 67.9106C401.815 89.4337 374.293 96.8081 352.77 84.3817C331.247 71.9553 323.873 44.4337 336.299 22.9106C348.725 1.38741 376.247 -5.98697 397.77 6.43943C419.293 18.8658 426.668 46.3874 414.241 67.9106Z"/>
<path d="M336.23 22.9725L414.172 67.9725L291.672 280.149L213.73 235.149L336.23 22.9725Z"/>
<path d="M413.538 21.6013C425.451 42.2354 417.66 69.0362 396.137 81.4626C374.614 93.889 347.509 87.2354 335.596 66.6013C323.682 45.9672 331.473 19.1664 352.996 6.73995C374.519 -5.68646 401.625 0.967178 413.538 21.6013Z"/>
<path d="M335.613 66.6889L413.555 21.6889L530.995 225.1L453.053 270.1L335.613 66.6889Z"/>
<path d="M530.357 223.861C542.27 244.495 534.48 271.296 512.957 283.723C491.434 296.149 464.328 289.495 452.415 268.861C440.502 248.227 448.292 221.426 469.816 209C491.339 196.574 518.444 203.227 530.357 223.861Z"/>
<path d="M489 238H639V290H489V238Z"/>
<path fill-rule="evenodd" clip-rule="evenodd" d="M639 0C719.081 0 784 64.9187 784 145C784 225.081 719.081 290 639 290C558.919 290 494 225.081 494 145C494 64.9187 558.919 0 639 0ZM639 90C608.624 90 584 114.624 584 145C584 175.376 608.624 200 639 200C669.376 200 694 175.376 694 145C694 114.624 669.376 90 639 90Z"/>
<path d="M1054 45C1054 69.8528 1033.85 90 1009 90C984.147 90 964 69.8528 964 45C964 20.1472 984.147 0 1009 0C1033.85 0 1054 20.1472 1054 45Z"/>
<path d="M854 45C854 69.8528 833.853 90 809 90C784.147 90 764 69.8528 764 45C764 20.1472 784.147 0 809 0C833.853 0 854 20.1472 854 45Z"/>
<path d="M811 0H1009V90H811V0Z"/>
<path d="M909 0C989.081 0 1054 64.9187 1054 145C1054 225.081 989.081 290 909 290C848.387 290 796.461 252.808 774.796 200H909C939.376 200 964 175.376 964 145C964 114.624 939.376 90 909 90H809V40.001C835.016 15.2158 870.231 0 909 0Z"/>
<path d="M975 44H1054V146H975V44Z"/>
<path d="M619 200H914V290H619V200Z"/>
<path d="M231.5 199.85C231.5 199.988 231.164 200.1 230.75 200.1C230.336 200.1 230 199.988 230 199.85C230 199.712 230.336 199.6 230.75 199.6C231.164 199.6 231.5 199.712 231.5 199.85Z"/>
<path d="M230 200.5L236.062 197L237.748 199.92L231.686 203.42L230 200.5Z"/>
<path d="M229.8 200H233.8V203H229.8V200Z"/>
</mask>
<path d="M90 45C90 69.8528 69.8528 90 45 90C20.1472 90 0 69.8528 0 45C0 20.1472 20.1472 0 45 0C69.8528 0 90 20.1472 90 45Z" fill="currentColor/>
<path d="M270 45C270 69.8528 249.853 90 225 90C200.147 90 180 69.8528 180 45C180 20.1472 200.147 0 225 0C249.853 0 270 20.1472 270 45Z" fill="currentColor/>
<path d="M45 0H225V90H45V0Z" fill="currentColor/>
<path d="M90 0H180V245H90V0Z" fill="currentColor/>
<path d="M135 290V200H380V290H135Z" fill="currentColor/>
<path d="M180 245C180 269.853 159.853 290 135 290C110.147 290 90 269.853 90 245C90 220.147 110.147 200 135 200C159.853 200 180 220.147 180 245Z" fill="currentColor/>
<path d="M425 245C425 269.853 404.853 290 380 290C355.147 290 335 269.853 335 245C335 220.147 355.147 200 380 200C404.853 200 425 220.147 425 245Z" fill="currentColor/>
<path d="M414.241 67.9106C401.815 89.4337 374.293 96.8081 352.77 84.3817C331.247 71.9553 323.873 44.4337 336.299 22.9106C348.725 1.38741 376.247 -5.98697 397.77 6.43943C419.293 18.8658 426.668 46.3874 414.241 67.9106Z" fill="currentColor/>
<path d="M336.23 22.9725L414.172 67.9725L291.672 280.149L213.73 235.149L336.23 22.9725Z" fill="currentColor/>
<path d="M413.538 21.6013C425.451 42.2354 417.66 69.0362 396.137 81.4626C374.614 93.889 347.509 87.2354 335.596 66.6013C323.682 45.9672 331.473 19.1664 352.996 6.73995C374.519 -5.68646 401.625 0.967178 413.538 21.6013Z" fill="currentColor/>
<path d="M335.613 66.6889L413.555 21.6889L530.995 225.1L453.053 270.1L335.613 66.6889Z" fill="currentColor/>
<path d="M530.357 223.861C542.27 244.495 534.48 271.296 512.957 283.723C491.434 296.149 464.328 289.495 452.415 268.861C440.502 248.227 448.292 221.426 469.816 209C491.339 196.574 518.444 203.227 530.357 223.861Z" fill="currentColor/>
<path d="M489 238H639V290H489V238Z" fill="currentColor/>
<path fill-rule="evenodd" clip-rule="evenodd" d="M639 0C719.081 0 784 64.9187 784 145C784 225.081 719.081 290 639 290C558.919 290 494 225.081 494 145C494 64.9187 558.919 0 639 0ZM639 90C608.624 90 584 114.624 584 145C584 175.376 608.624 200 639 200C669.376 200 694 175.376 694 145C694 114.624 669.376 90 639 90Z" fill="currentColor/>
<path d="M1054 45C1054 69.8528 1033.85 90 1009 90C984.147 90 964 69.8528 964 45C964 20.1472 984.147 0 1009 0C1033.85 0 1054 20.1472 1054 45Z" fill="currentColor/>
<path d="M854 45C854 69.8528 833.853 90 809 90C784.147 90 764 69.8528 764 45C764 20.1472 784.147 0 809 0C833.853 0 854 20.1472 854 45Z" fill="currentColor/>
<path d="M811 0H1009V90H811V0Z" fill="currentColor/>
<path d="M909 0C989.081 0 1054 64.9187 1054 145C1054 225.081 989.081 290 909 290C848.387 290 796.461 252.808 774.796 200H909C939.376 200 964 175.376 964 145C964 114.624 939.376 90 909 90H809V40.001C835.016 15.2158 870.231 0 909 0Z" fill="currentColor/>
<path d="M975 44H1054V146H975V44Z" fill="currentColor/>
<path d="M619 200H914V290H619V200Z" fill="currentColor/>
<path d="M231.5 199.85C231.5 199.988 231.164 200.1 230.75 200.1C230.336 200.1 230 199.988 230 199.85C230 199.712 230.336 199.6 230.75 199.6C231.164 199.6 231.5 199.712 231.5 199.85Z" fill="currentColor/>
<path d="M230 200.5L236.062 197L237.748 199.92L231.686 203.42L230 200.5Z" fill="currentColor/>
<path d="M229.8 200H233.8V203H229.8V200Z" fill="currentColor/>
<path d="M225.2 200.25L225.211 200.75C228.793 200.673 231.423 200.298 233.529 199.198C235.653 198.089 237.181 196.279 238.643 193.482L238.2 193.25L237.757 193.018C236.345 195.719 234.94 197.333 233.066 198.311C231.174 199.299 228.741 199.674 225.189 199.75L225.2 200.25ZM90 0V-1H89V0H90ZM180 0H181V-1H180V0ZM336.23 22.9725L336.73 22.1064L335.864 21.6064L335.364 22.4725L336.23 22.9725ZM414.172 67.9725L415.038 68.4725L415.538 67.6064L414.672 67.1064L414.172 67.9725ZM291.672 280.149L291.172 281.015L292.038 281.515L292.538 280.649L291.672 280.149ZM213.73 235.149L212.864 234.649L212.364 235.515L213.23 236.015L213.73 235.149ZM335.613 66.6889L335.113 65.8228L334.247 66.3228L334.747 67.1889L335.613 66.6889ZM413.555 21.6889L414.421 21.1889L413.921 20.3228L413.055 20.8228L413.555 21.6889ZM530.995 225.1L531.495 225.967L532.361 225.467L531.861 224.6L530.995 225.1ZM453.053 270.1L452.187 270.6L452.687 271.467L453.553 270.967L453.053 270.1ZM489 238V237H488V238H489ZM639 238H640V237H639V238ZM489 290H488V291H489V290ZM811 0V-1H810V0H811ZM811 90H810V91H811V90ZM774.796 200V199H773.305L773.871 200.38L774.796 200ZM809 40.001L808.31 39.277L808 39.5725V40.001H809ZM975 44V43H974V44H975ZM1054 44H1055V43H1054V44ZM1054 146V147H1055V146H1054ZM975 146H974V147H975V146ZM619 200V199H618V200H619ZM914 200H915V199H914V200ZM914 290V291H915V290H914ZM619 290H618V291H619V290ZM230 200.5L229.5 199.634L228.634 200.134L229.134 201L230 200.5ZM236.062 197L236.928 196.5L236.428 195.634L235.562 196.134L236.062 197ZM237.748 199.92L238.248 200.786L239.114 200.286L238.614 199.42L237.748 199.92ZM231.686 203.42L230.82 203.92L231.32 204.786L232.186 204.286L231.686 203.42ZM229.8 200V199H228.8V200H229.8ZM233.8 200H234.8V199H233.8V200ZM233.8 203V204H234.8V203H233.8ZM229.8 203H228.8V204H229.8V203ZM90 45H89C89 69.3005 69.3005 89 45 89V90V91C70.4051 91 91 70.4051 91 45H90ZM45 90V89C20.6995 89 1 69.3005 1 45H0H-1C-1 70.4051 19.5949 91 45 91V90ZM0 45H1C1 20.6995 20.6995 1 45 1V0V-1C19.5949 -1 -1 19.5949 -1 45H0ZM45 0V1C69.3005 1 89 20.6995 89 45H90H91C91 19.5949 70.4051 -1 45 -1V0ZM270 45H269C269 69.3005 249.301 89 225 89V90V91C250.405 91 271 70.4051 271 45H270ZM225 90V89C200.699 89 181 69.3005 181 45H180H179C179 70.4051 199.595 91 225 91V90ZM180 45H181C181 20.6995 200.699 1 225 1V0V-1C199.595 -1 179 19.5949 179 45H180ZM225 0V1C249.301 1 269 20.6995 269 45H270H271C271 19.5949 250.405 -1 225 -1V0ZM45 0V1H225V0V-1H45V0ZM225 0H224V90H225H226V0H225ZM225 90V89H45V90V91H225V90ZM45 90H46V0H45H44V90H45ZM90 0V1H180V0V-1H90V0ZM180 0H179V245H180H181V0H180ZM180 245V244H90V245V246H180V245ZM90 245H91V0H90H89V245H90ZM135 290H136V200H135H134V290H135ZM135 200V201H380V200V199H135V200ZM380 200H379V290H380H381V200H380ZM380 290V289H135V290V291H380V290ZM180 245H179C179 269.301 159.301 289 135 289V290V291C160.405 291 181 270.405 181 245H180ZM135 290V289C110.699 289 91 269.301 91 245H90H89C89 270.405 109.595 291 135 291V290ZM90 245H91C91 220.699 110.699 201 135 201V200V199C109.595 199 89 219.595 89 245H90ZM135 200V201C159.301 201 179 220.699 179 245H180H181C181 219.595 160.405 199 135 199V200ZM425 245H424C424 269.301 404.301 289 380 289V290V291C405.405 291 426 270.405 426 245H425ZM380 290V289C355.699 289 336 269.301 336 245H335H334C334 270.405 354.595 291 380 291V290ZM335 245H336C336 220.699 355.699 201 380 201V200V199C354.595 199 334 219.595 334 245H335ZM380 200V201C404.301 201 424 220.699 424 245H425H426C426 219.595 405.405 199 380 199V200ZM414.241 67.9106L413.375 67.4106C401.225 88.4555 374.315 95.666 353.27 83.5157L352.77 84.3817L352.27 85.2477C374.272 97.9503 402.405 90.412 415.107 68.4106L414.241 67.9106ZM352.77 84.3817L353.27 83.5157C332.225 71.3654 325.015 44.4555 337.165 23.4106L336.299 22.9106L335.433 22.4106C322.73 44.412 330.269 72.5452 352.27 85.2477L352.77 84.3817ZM336.299 22.9106L337.165 23.4106C349.315 2.3657 376.225 -4.84481 397.27 7.30546L397.77 6.43943L398.27 5.57341C376.269 -7.12914 348.135 0.409113 335.433 22.4106L336.299 22.9106ZM397.77 6.43943L397.27 7.30546C418.315 19.4557 425.525 46.3657 413.375 67.4106L414.241 67.9106L415.107 68.4106C427.81 46.4091 420.272 18.276 398.27 5.57341L397.77 6.43943ZM336.23 22.9725L335.73 23.8385L413.672 68.8385L414.172 67.9725L414.672 67.1064L336.73 22.1064L336.23 22.9725ZM414.172 67.9725L413.306 67.4725L290.806 279.649L291.672 280.149L292.538 280.649L415.038 68.4725L414.172 67.9725ZM291.672 280.149L292.172 279.283L214.23 234.283L213.73 235.149L213.23 236.015L291.172 281.015L291.672 280.149ZM213.73 235.149L214.596 235.649L337.096 23.4725L336.23 22.9725L335.364 22.4725L212.864 234.649L213.73 235.149ZM413.538 21.6013L412.672 22.1013C424.289 42.223 416.717 68.4262 395.637 80.5966L396.137 81.4626L396.637 82.3286C418.604 69.6462 426.613 42.2477 414.404 21.1013L413.538 21.6013ZM396.137 81.4626L395.637 80.5966C374.558 92.7669 348.079 86.223 336.462 66.1013L335.596 66.6013L334.73 67.1013C346.938 88.2477 374.671 95.0111 396.637 82.3286L396.137 81.4626ZM335.596 66.6013L336.462 66.1013C324.844 45.9795 332.416 19.7763 353.496 7.60597L352.996 6.73995L352.496 5.87392C330.529 18.5564 322.521 45.9548 334.73 67.1013L335.596 66.6013ZM352.996 6.73995L353.496 7.60597C374.576 -4.56438 401.055 1.97954 412.672 22.1013L413.538 21.6013L414.404 21.1013C402.195 -0.0451828 374.463 -6.80854 352.496 5.87392L352.996 6.73995ZM335.613 66.6889L336.113 67.5549L414.055 22.5549L413.555 21.6889L413.055 20.8228L335.113 65.8228L335.613 66.6889ZM413.555 21.6889L412.689 22.1889L530.129 225.6L530.995 225.1L531.861 224.6L414.421 21.1889L413.555 21.6889ZM530.995 225.1L530.495 224.234L452.553 269.234L453.053 270.1L453.553 270.967L531.495 225.967L530.995 225.1ZM453.053 270.1L453.919 269.6L336.479 66.1889L335.613 66.6889L334.747 67.1889L452.187 270.6L453.053 270.1ZM530.357 223.861L529.491 224.361C541.109 244.483 533.536 270.686 512.457 282.857L512.957 283.723L513.457 284.589C535.423 271.906 543.432 244.508 531.223 223.361L530.357 223.861ZM512.957 283.723L512.457 282.857C491.377 295.027 464.898 288.483 453.281 268.361L452.415 268.861L451.549 269.361C463.758 290.508 491.49 297.271 513.457 284.589L512.957 283.723ZM452.415 268.861L453.281 268.361C441.664 248.24 449.236 222.036 470.316 209.866L469.816 209L469.316 208.134C447.349 220.816 439.34 248.215 451.549 269.361L452.415 268.861ZM469.816 209L470.316 209.866C491.395 197.696 517.874 204.24 529.491 224.361L530.357 223.861L531.223 223.361C519.014 202.215 491.282 195.452 469.316 208.134L469.816 209ZM489 238V239H639V238V237H489V238ZM639 238H638V290H639H640V238H639ZM639 290V289H489V290V291H639V290ZM489 290H490V238H489H488V290H489ZM639 0V1C718.529 1 783 65.471 783 145H784H785C785 64.3664 719.634 -1 639 -1V0ZM784 145H783C783 224.529 718.529 289 639 289V290V291C719.634 291 785 225.634 785 145H784ZM639 290V289C559.471 289 495 224.529 495 145H494H493C493 225.634 558.366 291 639 291V290ZM494 145H495C495 65.471 559.471 1 639 1V0V-1C558.366 -1 493 64.3664 493 145H494ZM639 90V89C608.072 89 583 114.072 583 145H584H585C585 115.177 609.177 91 639 91V90ZM584 145H583C583 175.928 608.072 201 639 201V200V199C609.177 199 585 174.823 585 145H584ZM639 200V201C669.928 201 695 175.928 695 145H694H693C693 174.823 668.823 199 639 199V200ZM694 145H695C695 114.072 669.928 89 639 89V90V91C668.823 91 693 115.177 693 145H694ZM1054 45H1053C1053 69.3005 1033.3 89 1009 89V90V91C1034.41 91 1055 70.4051 1055 45H1054ZM1009 90V89C984.699 89 965 69.3005 965 45H964H963C963 70.4051 983.595 91 1009 91V90ZM964 45H965C965 20.6995 984.699 1 1009 1V0V-1C983.595 -1 963 19.5949 963 45H964ZM1009 0V1C1033.3 1 1053 20.6995 1053 45H1054H1055C1055 19.5949 1034.41 -1 1009 -1V0ZM854 45H853C853 69.3005 833.301 89 809 89V90V91C834.405 91 855 70.4051 855 45H854ZM809 90V89C784.699 89 765 69.3005 765 45H764H763C763 70.4051 783.595 91 809 91V90ZM764 45H765C765 20.6995 784.699 1 809 1V0V-1C783.595 -1 763 19.5949 763 45H764ZM809 0V1C833.301 1 853 20.6995 853 45H854H855C855 19.5949 834.405 -1 809 -1V0ZM811 0V1H1009V0V-1H811V0ZM1009 0H1008V90H1009H1010V0H1009ZM1009 90V89H811V90V91H1009V90ZM811 90H812V0H811H810V90H811ZM909 0V1C988.529 1 1053 65.471 1053 145H1054H1055C1055 64.3664 989.634 -1 909 -1V0ZM1054 145H1053C1053 224.529 988.529 289 909 289V290V291C989.634 291 1055 225.634 1055 145H1054ZM909 290V289C848.806 289 797.237 252.066 775.721 199.62L774.796 200L773.871 200.38C795.684 253.55 847.967 291 909 291V290ZM774.796 200V201H909V200V199H774.796V200ZM909 200V201C939.928 201 965 175.928 965 145H964H963C963 174.823 938.823 199 909 199V200ZM964 145H965C965 114.072 939.928 89 909 89V90V91C938.823 91 963 115.177 963 145H964ZM909 90V89H809V90V91H909V90ZM809 90H810V40.001H809H808V90H809ZM809 40.001L809.69 40.725C835.527 16.1098 870.498 1 909 1V0V-1C869.964 -1 834.505 14.3217 808.31 39.277L809 40.001ZM975 44V45H1054V44V43H975V44ZM1054 44H1053V146H1054H1055V44H1054ZM1054 146V145H975V146V147H1054V146ZM975 146H976V44H975H974V146H975ZM619 200V201H914V200V199H619V200ZM914 200H913V290H914H915V200H914ZM914 290V289H619V290V291H914V290ZM619 290H620V200H619H618V290H619ZM231.5 199.85H230.5C230.5 199.447 230.746 199.222 230.822 199.162C230.87 199.124 230.91 199.103 230.929 199.093C230.95 199.083 230.963 199.078 230.964 199.078C230.965 199.078 230.945 199.084 230.902 199.09C230.861 199.096 230.809 199.1 230.75 199.1V200.1V201.1C231.035 201.1 231.334 201.063 231.597 200.975C231.723 200.933 231.897 200.861 232.06 200.733C232.212 200.613 232.5 200.322 232.5 199.85H231.5ZM230.75 200.1V199.1C230.691 199.1 230.639 199.096 230.598 199.09C230.555 199.084 230.535 199.078 230.536 199.078C230.537 199.078 230.55 199.083 230.571 199.093C230.59 199.103 230.63 199.124 230.678 199.162C230.754 199.222 231 199.447 231 199.85H230H229C229 200.322 229.288 200.613 229.44 200.733C229.603 200.861 229.777 200.933 229.903 200.975C230.166 201.063 230.465 201.1 230.75 201.1V200.1ZM230 199.85H231C231 200.253 230.754 200.478 230.678 200.538C230.63 200.576 230.59 200.597 230.571 200.607C230.55 200.617 230.537 200.622 230.536 200.622C230.535 200.622 230.555 200.616 230.598 200.61C230.639 200.604 230.691 200.6 230.75 200.6V199.6V198.6C230.465 198.6 230.166 198.637 229.903 198.725C229.777 198.767 229.603 198.839 229.44 198.967C229.288 199.087 229 199.378 229 199.85H230ZM230.75 199.6V200.6C230.809 200.6 230.861 200.604 230.902 200.61C230.945 200.616 230.965 200.622 230.964 200.622C230.963 200.622 230.95 200.617 230.929 200.607C230.91 200.597 230.87 200.576 230.822 200.538C230.746 200.478 230.5 200.253 230.5 199.85H231.5H232.5C232.5 199.378 232.212 199.087 232.06 198.967C231.897 198.839 231.723 198.767 231.597 198.725C231.334 198.637 231.035 198.6 230.75 198.6V199.6ZM230 200.5L230.5 201.366L236.562 197.866L236.062 197L235.562 196.134L229.5 199.634L230 200.5ZM236.062 197L235.196 197.5L236.882 200.42L237.748 199.92L238.614 199.42L236.928 196.5L236.062 197ZM237.748 199.92L237.248 199.054L231.186 202.554L231.686 203.42L232.186 204.286L238.248 200.786L237.748 199.92ZM231.686 203.42L232.552 202.92L230.866 200L230 200.5L229.134 201L230.82 203.92L231.686 203.42ZM229.8 200V201H233.8V200V199H229.8V200ZM233.8 200H232.8V203H233.8H234.8V200H233.8ZM233.8 203V202H229.8V203V204H233.8V203ZM229.8 203H230.8V200H229.8H228.8V203H229.8Z" fill="currentColor mask="url(#path-1-inside-1_6_73)"/>
</svg>
