<svg width="1054" height="290" viewBox="0 0 1054 290" fill="none" xmlns="http://www.w3.org/2000/svg">
  <mask id="path-1-inside-1_6_73" fill="currentColor">
    <path d="M90 45C90 69.8528 69.8528 90 45 90C20.1472 90 0 69.8528 0 45C0 20.1472 20.1472 0 45 0C69.8528 0 90 20.1472 90 45Z"/>
    <path d="M270 45C270 69.8528 249.853 90 225 90C200.147 90 180 69.8528 180 45C180 20.1472 200.147 0 225 0C249.853 0 270 20.1472 270 45Z"/>
    <path d="M45 0H225V90H45V0Z"/>
    <path d="M90 0H180V245H90V0Z"/>
    <path d="M135 290V200H380V290H135Z"/>
    <path d="M180 245C180 269.853 159.853 290 135 290C110.147 290 90 269.853 90 245C90 220.147 110.147 200 135 200C159.853 200 180 220.147 180 245Z"/>
    <path d="M425 245C425 269.853 404.853 290 380 290C355.147 290 335 269.853 335 245C335 220.147 355.147 200 380 200C404.853 200 425 220.147 425 245Z"/>
    <path d="M414.241 67.9106C401.815 89.4337 374.293 96.8081 352.77 84.3817C331.247 71.9553 323.873 44.4337 336.299 22.9106C348.725 1.38741 376.247 -5.98697 397.77 6.43943C419.293 18.8658 426.668 46.3874 414.241 67.9106Z"/>
    <path d="M336.23 22.9725L414.172 67.9725L291.672 280.149L213.73 235.149L336.23 22.9725Z"/>
    <path d="M413.538 21.6013C425.451 42.2354 417.66 69.0362 396.137 81.4626C374.614 93.889 347.509 87.2354 335.596 66.6013C323.682 45.9672 331.473 19.1664 352.996 6.73995C374.519 -5.68646 401.625 0.967178 413.538 21.6013Z"/>
    <path d="M335.613 66.6889L413.555 21.6889L530.995 225.1L453.053 270.1L335.613 66.6889Z"/>
    <path d="M530.357 223.861C542.27 244.495 534.48 271.296 512.957 283.723C491.434 296.149 464.328 289.495 452.415 268.861C440.502 248.227 448.292 221.426 469.816 209C491.339 196.574 518.444 203.227 530.357 223.861Z"/>
    <path d="M489 238H639V290H489V238Z"/>
    <path fill-rule="evenodd" clip-rule="evenodd" d="M639 0C719.081 0 784 64.9187 784 145C784 225.081 719.081 290 639 290C558.919 290 494 225.081 494 145C494 64.9187 558.919 0 639 0ZM639 90C608.624 90 584 114.624 584 145C584 175.376 608.624 200 639 200C669.376 200 694 175.376 694 145C694 114.624 669.376 90 639 90Z"/>
    <path d="M1054 45C1054 69.8528 1033.85 90 1009 90C984.147 90 964 69.8528 964 45C964 20.1472 984.147 0 1009 0C1033.85 0 1054 20.1472 1054 45Z"/>
    <path d="M854 45C854 69.8528 833.853 90 809 90C784.147 90 764 69.8528 764 45C764 20.1472 784.147 0 809 0C833.853 0 854 20.1472 854 45Z"/>
    <path d="M811 0H1009V90H811V0Z"/>
    <path d="M909 0C989.081 0 1054 64.9187 1054 145C1054 225.081 989.081 290 909 290C848.387 290 796.461 252.808 774.796 200H909C939.376 200 964 175.376 964 145C964 114.624 939.376 90 909 90H809V40.001C835.016 15.2158 870.231 0 909 0Z"/>
    <path d="M975 44H1054V146H975V44Z"/>
    <path d="M619 200H914V290H619V200Z"/>
    <path d="M231.5 199.85C231.5 199.988 231.164 200.1 230.75 200.1C230.336 200.1 230 199.988 230 199.85C230 199.712 230.336 199.6 230.75 199.6C231.164 199.6 231.5 199.712 231.5 199.85Z"/>
    <path d="M230 200.5L236.062 197L237.748 199.92L231.686 203.42L230 200.5Z"/>
    <path d="M229.8 200H233.8V203H229.8V200Z"/>
  </mask>
  <g fill="currentColor" mask="url(#path-1-inside-1_6_73)">
    <path d="M90 45C90 69.8528 69.8528 90 45 90C20.1472 90 0 69.8528 0 45C0 20.1472 20.1472 0 45 0C69.8528 0 90 20.1472 90 45Z"/>
    <path d="M270 45C270 69.8528 249.853 90 225 90C200.147 90 180 69.8528 180 45C180 20.1472 200.147 0 225 0C249.853 0 270 20.1472 270 45Z"/>
    <path d="M45 0H225V90H45V0Z"/>
    <path d="M90 0H180V245H90V0Z"/>
    <path d="M135 290V200H380V290H135Z"/>
    <path d="M180 245C180 269.853 159.853 290 135 290C110.147 290 90 269.853 90 245C90 220.147 110.147 200 135 200C159.853 200 180 220.147 180 245Z"/>
    <path d="M425 245C425 269.853 404.853 290 380 290C355.147 290 335 269.853 335 245C335 220.147 355.147 200 380 200C404.853 200 425 220.147 425 245Z"/>
    <path d="M414.241 67.9106C401.815 89.4337 374.293 96.8081 352.77 84.3817C331.247 71.9553 323.873 44.4337 336.299 22.9106C348.725 1.38741 376.247 -5.98697 397.77 6.43943C419.293 18.8658 426.668 46.3874 414.241 67.9106Z"/>
    <path d="M336.23 22.9725L414.172 67.9725L291.672 280.149L213.73 235.149L336.23 22.9725Z"/>
    <path d="M413.538 21.6013C425.451 42.2354 417.66 69.0362 396.137 81.4626C374.614 93.889 347.509 87.2354 335.596 66.6013C323.682 45.9672 331.473 19.1664 352.996 6.73995C374.519 -5.68646 401.625 0.967178 413.538 21.6013Z"/>
    <path d="M335.613 66.6889L413.555 21.6889L530.995 225.1L453.053 270.1L335.613 66.6889Z"/>
    <path d="M530.357 223.861C542.27 244.495 534.48 271.296 512.957 283.723C491.434 296.149 464.328 289.495 452.415 268.861C440.502 248.227 448.292 221.426 469.816 209C491.339 196.574 518.444 203.227 530.357 223.861Z"/>
    <path d="M489 238H639V290H489V238Z"/>
    <path fill-rule="evenodd" clip-rule="evenodd" d="M639 0C719.081 0 784 64.9187 784 145C784 225.081 719.081 290 639 290C558.919 290 494 225.081 494 145C494 64.9187 558.919 0 639 0ZM639 90C608.624 90 584 114.624 584 145C584 175.376 608.624 200 639 200C669.376 200 694 175.376 694 145C694 114.624 669.376 90 639 90Z"/>
    <path d="M1054 45C1054 69.8528 1033.85 90 1009 90C984.147 90 964 69.8528 964 45C964 20.1472 984.147 0 1009 0C1033.85 0 1054 20.1472 1054 45Z"/>
    <path d="M854 45C854 69.8528 833.853 90 809 90C784.147 90 764 69.8528 764 45C764 20.1472 784.147 0 809 0C833.853 0 854 20.1472 854 45Z"/>
    <path d="M811 0H1009V90H811V0Z"/>
    <path d="M909 0C989.081 0 1054 64.9187 1054 145C1054 225.081 989.081 290 909 290C848.387 290 796.461 252.808 774.796 200H909C939.376 200 964 175.376 964 145C964 114.624 939.376 90 909 90H809V40.001C835.016 15.2158 870.231 0 909 0Z"/>
    <path d="M975 44H1054V146H975V44Z"/>
    <path d="M619 200H914V290H619V200Z"/>
    <path d="M231.5 199.85C231.5 199.988 231.164 200.1 230.75 200.1C230.336 200.1 230 199.988 230 199.85C230 199.712 230.336 199.6 230.75 199.6C231.164 199.6 231.5 199.712 231.5 199.85Z"/>
    <path d="M230 200.5L236.062 197L237.748 199.92L231.686 203.42L230 200.5Z"/>
    <path d="M229.8 200H233.8V203H229.8V200Z"/>
  </g>
</svg>
